#!OML:ASF E:\Steps\Project 1\Capture day 1\Session 2\Subject.ASF
:FULLY-SPECIFIED
:DEGREES
409
root 12.3681 16.013 12.5937 29.9404 -167.924 359.173
lowerback -9.17149 -2.42495 -6.64101
upperback 0.996254 -2.49978 -2.19069
thorax 6.3922 -1.47924 1.05024
lowerneck 1.25774 0.376909 -3.82535
upperneck 8.85704 -0.365246 6.74539
head 2.65122 -0.295872 2.87064
rclavicle -2.78299e-014 -4.77083e-015
rhumerus -26.1712 -15.2758 -87.894
rradius 27.0544
rwrist 0.182288
rhand -12.1989 -51.0502
rfingers 7.12502
rthumb 13.8654 -80.568
lclavicle -2.78299e-014 -4.77083e-015
lhumerus -26.4768 -1.70787 79.9403
lradius 16.6663
lwrist -8.12948
lhand -23.991 -13.2545
lfingers 7.12502
lthumb 2.48602 16.7107
rfemur -52.575 18.0352 6.81029
rtibia 32.1367
rfoot -19.9935 -7.55061
rtoes -46.0574
lfemur -50.4912 -15.6507 -8.08088
ltibia 36.8259
lfoot -15.787 9.35083
ltoes -39.8721
410
root 12.3277 16.019 12.6085 30.115 -168.112 359.318
lowerback -9.19977 -2.19057 -6.51297
upperback 0.716636 -2.21757 -2.38029
thorax 6.07674 -1.32773 0.83122
lowerneck 1.7042 0.313174 -3.45641
upperneck 8.85988 -0.484432 6.69334
head 2.57369 -0.361046 2.77803
rclavicle -7.95139e-016 -3.65764e-014
rhumerus -26.9185 -15.8243 -87.9069
rradius 27.0448
rwrist 0.0454803
rhand -12.1563 -51.1142
rfingers 7.12502
rthumb 13.9063 -80.6292
lclavicle -7.95139e-016 -3.65764e-014
lhumerus -26.1564 -2.69585 79.9648
lradius 16.3044
lwrist -7.74215
lhand -23.7979 -12.778
lfingers 7.12502
lthumb 2.67251 17.185
rfemur -52.6179 18.1409 6.6306
rtibia 31.6459
rfoot -18.8258 -7.60186
rtoes -47.1039
lfemur -50.6232 -15.3511 -8.18592
ltibia 36.7327
lfoot -15.7195 9.43936
ltoes -40.2104
411
root 12.2912 16.0329 12.6077 29.6989 -168.015 359.219
lowerback -8.5822 -2.22617 -6.65856
upperback 0.752072 -2.3025 -2.39784
thorax 5.77507 -1.3685 0.9051
lowerneck 1.60544 0.297769 -3.49678
upperneck 8.89226 -0.502839 6.70251
head 2.60418 -0.36844 2.7897
rclavicle 2.70347e-014 1.01778e-013
rhumerus -27.165 -16.0155 -87.8585
rradius 26.7926
rwrist 0.209252
rhand -12.0547 -50.8412
rfingers 7.12502
rthumb 14.0043 -80.3494
lclavicle 2.70347e-014 1.01778e-013
lhumerus -26.0671 -2.64421 79.9317
lradius 16.1915
lwrist -7.88964
lhand -23.6256 -12.4525
lfingers 7.12502
lthumb 2.83894 17.5083
rfemur -51.7646 18.33 6.49133
rtibia 31.0723
rfoot -18.0566 -8.02032
rtoes -47.8422
lfemur -49.8572 -15.4134 -8.68135
ltibia 36.306
lfoot -15.4527 9.33835
ltoes -40.7297
412
root 12.2482 16.036 12.6201 29.7891 -168.227 359.338
lowerback -8.39864 -2.424 -6.51521
upperback 0.738932 -2.59668 -2.20008
thorax 5.67997 -1.50458 0.999594
lowerneck 0.761595 0.357467 -4.03785
upperneck 8.96002 -0.366574 6.76731
head 2.77982 -0.287886 2.92445
rclavicle -7.95139e-016 -1.11319e-014
rhumerus -26.7501 -15.3581 -87.901
rradius 26.2869
rwrist 0.521536
rhand -11.8458 -50.6034
rfingers 7.12502
rthumb 14.2055 -80.0976
lclavicle -7.95139e-016 -1.11319e-014
lhumerus -26.4209 -1.56329 79.8864
lradius 16.7142
lwrist -8.00372
lhand -23.4498 -12.3771
lfingers 7.12502
lthumb 3.0087 17.5814
rfemur -51.9465 18.3086 6.35379
rtibia 31.0203
rfoot -17.9258 -7.89169
rtoes -47.8483
lfemur -49.8038 -15.0193 -8.93031
ltibia 36.0363
lfoot -15.2614 9.28258
ltoes -41.1855
413
root 12.2059 16.0422 12.6302 29.9254 -168.422 359.413
lowerback -8.88225 -2.17846 -6.55661
upperback 0.779102 -2.21923 -2.3374
thorax 5.96669 -1.32767 0.911051
lowerneck 1.35881 0.311759 -3.71976
upperneck 8.88486 -0.466366 6.75143
head 2.64733 -0.347039 2.85078
rclavicle 1.74931e-014 -4.77083e-015
rhumerus -26.8649 -16.1848 -87.865
rradius 26.0759
rwrist 0.684991
rhand -11.9433 -50.4253
rfingers 7.12502
rthumb 14.1116 -79.9262
lclavicle 1.74931e-014 -4.77083e-015
lhumerus -26.508 -2.57301 80.0086
lradius 17.2162
lwrist -7.53296
lhand -23.0453 -11.7963
lfingers 7.12502
lthumb 3.39936 18.1563
rfemur -52.125 18.1465 6.23306
rtibia 30.9479
rfoot -17.8913 -7.60887
rtoes -47.6224
lfemur -49.7741 -14.7117 -9.15743
ltibia 35.7073
lfoot -15.177 9.23041
ltoes -41.2147
414
root 12.164 16.0527 12.6373 29.9846 -168.561 359.473
lowerback -9.01786 -2.38008 -6.6668
upperback 0.909278 -2.45624 -2.06218
thorax 6.21623 -1.45308 1.21615
lowerneck 1.00039 0.422338 -4.13397
upperneck 8.91071 -0.287445 6.77003
head 2.71479 -0.258208 2.94176
rclavicle 2.78299e-014 2.38542e-014
rhumerus -26.3184 -15.5239 -87.8198
rradius 25.5787
rwrist 0.774508
rhand -11.8869 -50.3746
rfingers 7.12502
rthumb 14.166 -79.8716
lclavicle 2.78299e-014 2.38542e-014
lhumerus -26.1087 -1.46135 80.1059
lradius 17.2083
lwrist -7.78226
lhand -22.9476 -11.8581
lfingers 7.12502
lthumb 3.49371 18.093
rfemur -52.126 17.9034 6.23574
rtibia 30.9156
rfoot -17.9584 -7.3305
rtoes -47.7474
lfemur -49.6838 -14.5951 -9.33288
ltibia 35.4496
lfoot -15.1119 9.29567
ltoes -41.1598
415
root 12.12 16.0626 12.6428 29.9976 -168.652 359.517
lowerback -9.05139 -2.25844 -6.61656
upperback 0.674753 -2.31309 -2.16119
thorax 5.96847 -1.3738 1.11206
lowerneck 1.65352 0.416017 -3.98309
upperneck 8.87612 -0.341055 6.7608
head 2.58491 -0.302426 2.90258
rclavicle -4.69132e-014 -3.49861e-014
rhumerus -26.9602 -16.1295 -87.6601
rradius 25.3412
rwrist 1.34305
rhand -12.0005 -50.286
rfingers 7.12502
rthumb 14.0566 -79.7907
lclavicle -4.69132e-014 -3.49861e-014
lhumerus -26.517 -2.12254 80.231
lradius 17.4657
lwrist -7.39686
lhand -23.2043 -12.4424
lfingers 7.12502
lthumb 3.24583 17.5126
rfemur -51.9377 18.0121 6.00645
rtibia 30.4759
rfoot -17.7842 -7.35709
rtoes -47.6765
lfemur -49.5673 -14.6038 -9.50798
ltibia 35.2716
lfoot -14.9763 9.42543
ltoes -41.6594
416
root 12.0765 16.0708 12.6475 30.0063 -168.728 359.557
lowerback -8.9734 -2.30552 -6.48799
upperback 0.742235 -2.39054 -2.14648
thorax 5.99645 -1.40838 1.04567
lowerneck 1.241 0.383129 -4.08925
upperneck 8.90248 -0.361347 6.80165
head 2.67225 -0.301379 2.94053
rclavicle -6.36111e-015 1.59028e-015
rhumerus -26.8115 -16.3731 -87.7455
rradius 25.1702
rwrist 2.10702
rhand -12.2261 -50.3443
rfingers 7.12502
rthumb 13.8391 -79.8639
lclavicle -6.36111e-015 1.59028e-015
lhumerus -26.4204 -2.11802 80.324
lradius 17.8173
lwrist -6.96513
lhand -23.191 -12.4631
lfingers 7.12502
lthumb 3.25867 17.4917
rfemur -51.5584 18.16 5.76506
rtibia 29.6623
rfoot -17.3102 -7.48512
rtoes -47.8192
lfemur -49.3598 -14.5874 -9.69541
ltibia 34.9396
lfoot -14.9093 9.32957
ltoes -41.3376
417
root 12.0342 16.0788 12.6529 30.0958 -168.848 359.641
lowerback -9.06948 -2.34547 -6.39262
upperback 0.785744 -2.44221 -2.09526
thorax 6.09888 -1.43255 1.03335
lowerneck 0.966417 0.383968 -4.19973
upperneck 8.90907 -0.341746 6.82997
head 2.72522 -0.285269 2.97422
rclavicle 9.54166e-015 -3.18055e-015
rhumerus -26.5956 -16.3967 -87.8393
rradius 24.9829
rwrist 2.53094
rhand -12.0833 -50.6005
rfingers 7.12502
rthumb 13.9768 -80.1106
lclavicle 9.54166e-015 -3.18055e-015
lhumerus -26.3546 -2.18462 80.4344
lradius 18.1917
lwrist -6.53162
lhand -22.9893 -12.2761
lfingers 7.12502
lthumb 3.45346 17.6757
rfemur -51.8557 18.0677 5.69287
rtibia 30.0075
rfoot -17.3361 -7.5042
rtoes -48.4437
lfemur -49.3038 -14.4922 -9.80824
ltibia 34.7307
lfoot -15.1615 9.05418
ltoes -39.2378
418
root 11.9915 16.0888 12.661 30.1961 -169.011 359.618
lowerback -9.23221 -2.40056 -6.49837
upperback 0.85676 -2.48706 -2.04375
thorax 6.27735 -1.46293 1.12996
lowerneck 0.877198 0.419777 -4.27363
upperneck 8.90841 -0.28514 6.82642
head 2.73847 -0.25655 2.98882
rclavicle 2.78299e-014 -3.33958e-014
rhumerus -26.3547 -16.1245 -87.9677
rradius 24.8456
rwrist 2.6977
rhand -11.9893 -50.8348
rfingers 7.12502
rthumb 14.0673 -80.3387
lclavicle 2.78299e-014 -3.33958e-014
lhumerus -26.177 -2.23343 80.5744
lradius 18.4813
lwrist -6.12294
lhand -22.981 -12.3156
lfingers 7.12502
lthumb 3.46149 17.636
rfemur -51.8173 17.959 5.4558
rtibia 29.7232
rfoot -17.1875 -7.4952
rtoes -48.8313
lfemur -49.3769 -14.5172 -9.99693
ltibia 34.7803
lfoot -15.4499 8.94562
ltoes -37.6504
419
root 11.9494 16.0986 12.6678 30.2047 -169.172 359.534
lowerback -9.22466 -2.41844 -6.64994
upperback 0.855541 -2.49705 -2.05771
thorax 6.2789 -1.47406 1.19811
lowerneck 0.878158 0.424574 -4.21836
upperneck 8.91267 -0.279594 6.80423
head 2.73864 -0.253115 2.97084
rclavicle -1.27222e-014 2.06736e-014
rhumerus -26.5592 -16.129 -88.0229
rradius 25.043
rwrist 3.11078
rhand -12.0821 -50.9128
rfingers 7.12502
rthumb 13.9778 -80.4229
lclavicle -1.27222e-014 2.06736e-014
lhumerus -25.8637 -2.4621 80.707
lradius 18.4255
lwrist -5.69761
lhand -23.1376 -12.5935
lfingers 7.12502
lthumb 3.31026 17.3606
rfemur -51.7955 17.8562 5.20505
rtibia 29.7086
rfoot -17.2392 -7.38557
rtoes -48.6162
lfemur -49.2946 -14.6781 -10.2401
ltibia 34.6925
lfoot -15.4533 9.02704
ltoes -37.4419
420
root 11.9087 16.107 12.6696 30.1629 -169.277 359.648
lowerback -9.2193 -2.29988 -6.56316
upperback 0.577367 -2.36885 -2.1445
thorax 5.96246 -1.39913 1.08776
lowerneck 1.63552 0.425744 -4.0006
upperneck 8.88736 -0.331377 6.76167
head 2.5915 -0.299209 2.90657
rclavicle 6.36111e-015 5.40694e-014
rhumerus -27.4221 -16.5208 -87.948
rradius 25.1131
rwrist 3.51507
rhand -12.2072 -51.0443
rfingers 7.12502
rthumb 13.8573 -80.5626
lclavicle 6.36111e-015 5.40694e-014
lhumerus -25.8963 -3.23237 80.8303
lradius 18.1674
lwrist -5.14727
lhand -23.3284 -12.4847
lfingers 7.12502
lthumb 3.12598 17.4722
rfemur -51.709 17.7786 5.23052
rtibia 29.5928
rfoot -17.1741 -7.09357
rtoes -48.1452
lfemur -49.0767 -14.6786 -10.3157
ltibia 34.3578
lfoot -15.2631 9.11198
ltoes -37.5384
